<svg xmlns="http://www.w3.org/2000/svg" version="1.1" xmlns:xlink="http://www.w3.org/1999/xlink" xmlns:svgjs="http://svgjs.com/svgjs" width="35.57471440239193" height="60"><svg data-v-423bf9ae="" xmlns="http://www.w3.org/2000/svg" viewBox="0 0 35.57471440239193 60" class="font"><!----><!----><!----><g data-v-423bf9ae="" id="SvgjsG1000" fill="black" transform="matrix(5.74712666777685,0,0,5.74712666777685,-4.022988529411052,-20.4023001118192)"><path d="M1.05 11.09L1.72 12.93L1.72 12.93Q2.80 13.19 3.51 13.19L3.51 13.19L3.51 13.19Q3.88 13.19 4.24 13.11L4.24 13.11L4.24 13.11Q4.60 13.04 4.88 12.84L4.88 12.84L4.88 12.84Q5.17 12.65 5.34 12.34L5.34 12.34L5.34 12.34Q5.52 12.02 5.52 11.54L5.52 11.54L5.52 11.54Q5.52 11.22 5.43 10.95L5.43 10.95L5.43 10.95Q5.34 10.67 5.10 10.40L5.10 10.40L5.10 10.40Q4.87 10.12 4.46 9.84L4.46 9.84L4.46 9.84Q4.06 9.56 3.43 9.21L3.43 9.21L3.43 9.21Q2.75 8.85 2.25 8.51L2.25 8.51L2.25 8.51Q1.76 8.18 1.43 7.83L1.43 7.83L1.43 7.83Q1.11 7.47 0.95 7.06L0.95 7.06L0.95 7.06Q0.80 6.65 0.80 6.13L0.80 6.13L0.80 6.13Q0.80 3.55 4.02 3.55L4.02 3.55L4.02 3.55Q5.16 3.55 6.43 3.87L6.43 3.87L6.43 6.23L6.15 6.23L5.41 4.50L5.41 4.50Q4.68 4.35 4.10 4.35L4.10 4.35L4.10 4.35Q3.12 4.35 2.58 4.72L2.58 4.72L2.58 4.72Q2.03 5.09 2.03 5.87L2.03 5.87L2.03 5.87Q2.03 6.15 2.11 6.39L2.11 6.39L2.11 6.39Q2.18 6.64 2.41 6.90L2.41 6.90L2.41 6.90Q2.65 7.17 3.07 7.47L3.07 7.47L3.07 7.47Q3.49 7.77 4.18 8.16L4.18 8.16L4.18 8.16Q4.87 8.52 5.38 8.84L5.38 8.84L5.38 8.84Q5.89 9.15 6.22 9.48L6.22 9.48L6.22 9.48Q6.56 9.82 6.72 10.21L6.72 10.21L6.72 10.21Q6.89 10.60 6.89 11.11L6.89 11.11L6.89 11.11Q6.89 11.93 6.62 12.48L6.62 12.48L6.62 12.48Q6.34 13.03 5.88 13.37L5.88 13.37L5.88 13.37Q5.42 13.71 4.81 13.85L4.81 13.85L4.81 13.85Q4.19 13.99 3.51 13.99L3.51 13.99L3.51 13.99Q3.12 13.99 2.78 13.97L2.78 13.97L2.78 13.97Q2.44 13.95 2.11 13.89L2.11 13.89L2.11 13.89Q1.78 13.84 1.44 13.76L1.44 13.76L1.44 13.76Q1.10 13.67 0.70 13.56L0.70 13.56L0.70 11.09L1.05 11.09Z"></path></g><!----><!----></svg><style>@media (prefers-color-scheme: light) { :root { filter: none; } }
</style></svg>